<?xml version="1.0" encoding="UTF-8"?>
<svg id="Layer_1" xmlns="http://www.w3.org/2000/svg" width="256" height="256" xmlns:xlink="http://www.w3.org/1999/xlink" version="1.1" viewBox="0 0 256 256">
  <!-- Generator: Adobe Illustrator 29.6.1, SVG Export Plug-In . SVG Version: 2.1.1 Build 9)  -->
  <defs>
    <style>
      .st0 {
        fill: #464e57;
      }

      .st1 {
        filter: url(#drop-shadow-1);
      }

      .st2 {
        filter: url(#drop-shadow-3);
      }

      .st3 {
        filter: url(#drop-shadow-2);
      }

      .st4 {
        fill: #343a40;
      }

      .st5 {
        fill: #444182;
      }

      .st6 {
        fill: #635aa7;
      }

      .st7 {
        fill: #fff;
      }

      .st8 {
        fill: #3b4249;
      }

      .st9 {
        fill: #368ca3;
      }

      .st10 {
        fill: #6d3266;
      }

      .st11 {
        fill: #4cc8f1;
      }

      .st12 {
        fill: #ae529f;
      }
    </style>
    <filter id="drop-shadow-1" x="4.6" y="129.4" width="132" height="100" filterUnits="userSpaceOnUse">
      <feOffset dx="-7" dy="7"/>
      <feGaussianBlur result="blur" stdDeviation="5"/>
      <feFlood flood-color="#000" flood-opacity=".8"/>
      <feComposite in2="blur" operator="in"/>
      <feComposite in="SourceGraphic"/>
    </filter>
    <filter id="drop-shadow-2" x="129" y="125.3" width="132" height="100" filterUnits="userSpaceOnUse">
      <feOffset dx="-7" dy="7"/>
      <feGaussianBlur result="blur1" stdDeviation="5"/>
      <feFlood flood-color="#000" flood-opacity=".8"/>
      <feComposite in2="blur1" operator="in"/>
      <feComposite in="SourceGraphic"/>
    </filter>
    <filter id="drop-shadow-3" x="128" y="26" width="132" height="100" filterUnits="userSpaceOnUse">
      <feOffset dx="-7" dy="7"/>
      <feGaussianBlur result="blur2" stdDeviation="5"/>
      <feFlood flood-color="#000" flood-opacity=".8"/>
      <feComposite in2="blur2" operator="in"/>
      <feComposite in="SourceGraphic"/>
    </filter>
  </defs>
  <g>
    <path class="st4" d="M11.8,212.3c0,6.8,2.5,11.8,6.6,14.8.5.4,1.1.7,1.6,1h0s.3.2.3.2c.1,0,.2.1.3.2l50,24.1,2.1-1.2c-1.2-2.5-1.9-5.5-1.9-9l-.6-58.2-.6-52.8c-.1-9.8,4.8-20.9,12.4-29.7l-59.9-28.9c-7,8.6-11.6,19.2-11.5,28.6l.6,52.8.6,58.2Z"/>
    <path class="st8" d="M170.3,3.1h0c-5.2-2.4-12.2-2-19.9,1.7L38.8,59c-6.3,3.1-12.1,7.9-16.8,13.7,2.5,22.3,17.4,32.4,50.6,24.4,4.5-5.3,19.3-5.2,25.2-8.1l111.6-54.3c3.8-1.9,7.5-2.9,10.8-3.1l.3-4.3L170.3,3.1Z"/>
    <path class="st0" d="M201.8,29.1l-111.9,53.2c-15.8,7.5-28.6,26.4-28.6,42.2v111.9c0,15.8,12.8,22.5,28.6,15l38.6-18.3,73.3-34.8c15.8-7.5,28.6-26.4,28.6-42.2V44.1c0-15.8-12.8-22.5-28.6-15Z"/>
    <path class="st7" d="M104.6,179s4.2,0,7.1,6c0,0,3.7,9.6,21.5-2.7,0,3.4,0,6.6,0,8.9,0,1.2.9,1.6,2.1,1.1l27.4-13c1.2-.6,2.1-1.9,2.1-3.1,0-3.3,0-8.5,0-14.6s-2-8.9-4.3-9.7c14.2-8.3,29.1-20.8,29.1-45.2s-2.5-11.5-6.6-14c.7-1.9,2.8-9.4-.6-16.6,0,0-5.3.8-17.5,14.8-5.1,1-10.5,2.9-16,5.4-5.4,2.6-10.9,5.9-15.9,9.7-12.2-2.5-17.5,1.8-17.5,1.8-3.5,10.4-1.3,15.9-.6,17.1-4.1,6.4-6.6,13.3-6.6,20.2,0,24.4,14.9,22.8,29,17.7-1.8,2.5-3.5,6-4,10.4-3.6,3.4-12.9,10.6-18.5,3.5,0,0-3.4-4.5-9.8-1.9,0,0-6.2,2.9-.4,4.1Z"/>
  </g>
  <g class="st1">
    <polygon class="st5" points="120 138 27 179.3 27 179.7 27 203.3 27 203.8 35 206.6 35 199.8 120 161.9 120 162 128 164.9 128 140.8 120 138"/>
    <polygon class="st6" points="128 165.7 35 207 35 183.1 128 141.7 128 165.7"/>
  </g>
  <g class="st3">
    <polygon class="st10" points="244.9 134.2 152 175.6 152 176 152 199.6 152 200 160 202.9 160 196 244.9 158.2 244.9 158.3 252.9 161.1 252.9 137.1 244.9 134.2"/>
    <polygon class="st12" points="252.9 161.9 160 203.3 160 179.3 252.9 138 252.9 161.9"/>
  </g>
  <g class="st2">
    <polygon class="st9" points="243.3 34.7 150.4 76.1 150.4 76.5 150.4 100.1 150.4 100.5 158.4 103.4 158.4 96.5 243.3 58.7 243.3 58.7 251.3 61.6 251.3 37.6 243.3 34.7"/>
    <polygon class="st11" points="251.3 62.4 158.4 103.8 158.4 79.8 251.3 38.4 251.3 62.4"/>
  </g>
</svg>